<?xml version="1.0" encoding="iso-8859-1"?>
<!-- Generator: Adobe Illustrator 19.0.0, SVG Export Plug-In . SVG Version: 6.00 Build 0)  -->
<svg version="1.1" id="Capa_1" xmlns="http://www.w3.org/2000/svg" xmlns:xlink="http://www.w3.org/1999/xlink" x="0px" y="0px"
	 viewBox="0 0 512 512" style="enable-background:new 0 0 512 512;" xml:space="preserve">
<path style="fill:#A5C244;" d="M414.5,7.5h-30v497h30c49.5,0,90-40.5,90-90v-317C504.5,48,464,7.5,414.5,7.5z"/>
<path style="fill:#CFEB6B;" d="M474.5,97.5v317c0,49.5-40.5,90-90,90h-287c-49.5,0-90-40.5-90-90v-317c0-49.5,40.5-90,90-90h287
	C434,7.5,474.5,48,474.5,97.5z"/>
<path style="fill:#FFFFFF;" d="M184.883,395.867c-5.312-0.001-10.401-2.112-14.151-5.867l-97.383-97.512
	c-7.806-7.815-7.797-20.479,0.019-28.284c7.816-7.806,20.479-7.797,28.284,0.019l83.237,83.348l225.466-225.574
	c7.808-7.813,20.471-7.816,28.284-0.007s7.815,20.472,0.007,28.284L199.028,390.005
	C195.277,393.758,190.188,395.867,184.883,395.867z"/>
<path d="M414.5,0h-317C43.738,0,0,43.738,0,97.5v317C0,468.262,43.738,512,97.5,512h317c53.762,0,97.5-43.738,97.5-97.5v-317
	C512,43.738,468.262,0,414.5,0z M497,414.5c0,45.49-37.01,82.5-82.5,82.5h-317C52.01,497,15,459.99,15,414.5v-317
	C15,52.01,52.01,15,97.5,15h317c45.49,0,82.5,37.01,82.5,82.5V414.5z"/>
<path d="M424.499,108.633c-7.349,0-14.256,2.863-19.449,8.061L184.891,336.958l-77.933-78.036
	c-5.195-5.202-12.105-8.067-19.458-8.067c-7.338,0-14.239,2.855-19.433,8.042c-10.729,10.716-10.74,28.162-0.025,38.891
	l97.383,97.512c5.194,5.201,12.104,8.066,19.457,8.067c7.349,0,14.257-2.862,19.451-8.06L443.95,155.574
	c5.192-5.195,8.052-12.102,8.05-19.447s-2.864-14.251-8.06-19.443C438.746,111.492,431.842,108.633,424.499,108.633z
	 M433.341,144.971L193.724,384.703c-2.361,2.362-5.5,3.663-8.84,3.663c-3.344-0.001-6.484-1.303-8.846-3.667l-97.383-97.512
	c-4.87-4.877-4.865-12.807,0.012-17.678c2.36-2.357,5.497-3.655,8.833-3.655c3.342,0,6.483,1.302,8.845,3.667l83.237,83.348
	c1.406,1.408,3.314,2.2,5.305,2.2s3.899-0.791,5.307-2.198L415.66,127.297c2.36-2.363,5.499-3.664,8.839-3.664
	c3.338,0,6.477,1.3,8.838,3.66s3.662,5.499,3.663,8.838S435.701,142.609,433.341,144.971z"/>
<g>
</g>
<g>
</g>
<g>
</g>
<g>
</g>
<g>
</g>
<g>
</g>
<g>
</g>
<g>
</g>
<g>
</g>
<g>
</g>
<g>
</g>
<g>
</g>
<g>
</g>
<g>
</g>
<g>
</g>
</svg>
