<svg width="117" height="348" xmlns="http://www.w3.org/2000/svg"><defs><linearGradient x1="44.915%" y1="35.65%" x2="58.904%" y2="56.834%" id="a"><stop stop-color="#DCFBBD" offset="0%"/><stop stop-color="#C4F9C2" offset="100%"/></linearGradient></defs><g fill="none" fill-rule="evenodd"><path d="M172.746 22.42C140.038-22.598 90.22-2.885 79.785 51.834c-10.434 54.718-14.385 53.12-61.442 97.059-47.057 43.938 11.852 95.155 35.736 139.021 23.884 43.867 77.64 62.933 119.241 103.483 31.41 30.616 48.809 63.396 64.737 59.906 37.026-8.112-7.976 13.131 34.519 18.213 42.495 5.082 54.117-14.44 40.892-106.991-13.225-92.552-72.253-154.946-51.857-205.292 20.396-50.347 38.226-55.51 9.547-75.292-28.68-19.782-65.703-14.5-98.412-59.52z" fill="#E9FFE9"/><path d="M71.974 48.018c-55.59 0-83.524 45.385-45.428 85.924 38.095 40.539 37.549 39.831 45.428 103.625 7.88 63.793 71.601 63.064 97.47 63.429 25.87.364 162.277-21.814 177.462-56.481 15.185-34.667 115.963 16.585 145.023-14.757 29.06-31.342 20.106-52.185-62.458-95.816-82.565-43.632-167.651-32.569-196.365-78.588-28.713-46.02-22.415-63.452-55.243-51.896-32.829 11.556-50.299 44.56-105.889 44.56z" fill="url(#a)" transform="rotate(54 153.533 161.23)"/></g></svg>