<?xml version="1.0" encoding="iso-8859-1"?>
<!-- Generator: Adobe Illustrator 19.0.0, SVG Export Plug-In . SVG Version: 6.00 Build 0)  -->
<svg version="1.1" id="Capa_1" xmlns="http://www.w3.org/2000/svg" xmlns:xlink="http://www.w3.org/1999/xlink" x="0px" y="0px"
	 viewBox="0 0 512 512" style="enable-background:new 0 0 512 512;" xml:space="preserve">
<polygon style="fill:#54BBFF;" points="474.5,7.5 256,256 474.5,504.5 504.5,504.5 504.5,7.5 "/>
<rect x="7.5" y="7.5" style="fill:#8DD2FF;" width="467" height="497"/>
<polygon style="fill:#C6E8FF;" points="444.5,37.5 256,256 444.5,474.5 474.5,474.5 474.5,37.5 "/>
<rect x="37.5" y="37.5" style="fill:#DEF1FF;" width="407" height="437"/>
<path style="fill:#54BBFF;" d="M309,294.055V140.5c0-9.348-6.475-17.448-15.593-19.508c-1.473-0.333-2.952-0.494-4.413-0.494
	c-7.58,0-14.682,4.328-18.052,11.403l-82.5,173.25c-2.95,6.196-2.518,13.473,1.146,19.276s10.048,9.322,16.911,9.322H269v37.75
	c0,11.046,8.954,20,20,20s20-8.954,20-20v-38.055c9.377-1.655,16.5-9.843,16.5-19.695S318.377,295.71,309,294.055z M269,293.75
	h-30.824L269,229.019V293.75z"/>
<path d="M504.5,0H7.5C3.357,0,0,3.358,0,7.5v497c0,4.142,3.357,7.5,7.5,7.5h497c4.143,0,7.5-3.358,7.5-7.5V7.5
	C512,3.358,508.643,0,504.5,0z M497,497H15V15h482V497z"/>
<path d="M37.5,482h437c4.143,0,7.5-3.358,7.5-7.5v-437c0-4.142-3.357-7.5-7.5-7.5h-437c-4.143,0-7.5,3.358-7.5,7.5v45
	c0,4.142,3.357,7.5,7.5,7.5s7.5-3.358,7.5-7.5V45h422v422H45V112.5c0-4.142-3.357-7.5-7.5-7.5s-7.5,3.358-7.5,7.5v362
	C30,478.642,33.357,482,37.5,482z"/>
<path d="M270.653,221.703c-3.421-0.773-6.917,0.927-8.425,4.091l-30.824,64.731c-1.106,2.324-0.944,5.053,0.43,7.229
	s3.769,3.496,6.342,3.496H269c4.143,0,7.5-3.358,7.5-7.5v-64.731C276.5,225.513,274.072,222.476,270.653,221.703z M261.5,286.25
	h-11.446l11.446-24.037V286.25z"/>
<path d="M295.062,113.676c-1.991-0.45-4.032-0.678-6.067-0.678c-10.543,0-20.286,6.154-24.823,15.679l-82.5,173.25
	c-4.081,8.57-3.491,18.479,1.576,26.504c5.067,8.026,13.761,12.818,23.253,12.818h55v30.25c0,15.164,12.337,27.5,27.5,27.5
	s27.5-12.336,27.5-27.5v-32.531c9.849-4.277,16.5-14.058,16.5-25.219s-6.651-20.942-16.5-25.219V140.5
	C316.5,127.559,307.684,116.528,295.062,113.676z M318,313.75c0,6.079-4.333,11.255-10.304,12.309
	c-3.584,0.632-6.196,3.747-6.196,7.386V371.5c0,6.893-5.607,12.5-12.5,12.5s-12.5-5.607-12.5-12.5v-37.75c0-4.142-3.357-7.5-7.5-7.5
	h-62.5c-4.314,0-8.266-2.178-10.569-5.826c-2.304-3.648-2.571-8.153-0.717-12.048l82.5-173.25c2.063-4.331,6.49-7.128,11.28-7.128
	c0.924,0,1.853,0.104,2.761,0.309c5.737,1.296,9.745,6.311,9.745,12.193v153.555c0,3.639,2.612,6.753,6.196,7.386
	C313.667,302.495,318,307.671,318,313.75z"/>
<g>
</g>
<g>
</g>
<g>
</g>
<g>
</g>
<g>
</g>
<g>
</g>
<g>
</g>
<g>
</g>
<g>
</g>
<g>
</g>
<g>
</g>
<g>
</g>
<g>
</g>
<g>
</g>
<g>
</g>
</svg>
