<?xml version="1.0" encoding="iso-8859-1"?>
<!-- Generator: Adobe Illustrator 19.0.0, SVG Export Plug-In . SVG Version: 6.00 Build 0)  -->
<svg version="1.1" id="Capa_1" xmlns="http://www.w3.org/2000/svg" xmlns:xlink="http://www.w3.org/1999/xlink" x="0px" y="0px"
	 viewBox="0 0 512 512" style="enable-background:new 0 0 512 512;" xml:space="preserve">
<polygon style="fill:#54BBFF;" points="474.5,7.5 256,256 474.5,504.5 504.5,504.5 504.5,7.5 "/>
<rect x="7.5" y="7.5" style="fill:#8DD2FF;" width="467" height="497"/>
<polygon style="fill:#C6E8FF;" points="444.5,37.5 256,256 444.5,474.5 474.5,474.5 474.5,37.5 "/>
<rect x="37.5" y="37.5" style="fill:#DEF1FF;" width="407" height="437"/>
<path style="fill:#54BBFF;" d="M272.37,121.543c-2.094-0.703-4.241-1.043-6.367-1.043c-6.143,0-12.091,2.837-15.944,7.924
	l-49.999,66c-6.67,8.805-4.94,21.349,3.865,28.019c3.613,2.737,7.854,4.06,12.062,4.059c6.047,0,12.024-2.732,15.957-7.924
	L246,200.022V371.5c0,11.046,8.954,20,20,20c11.046,0,20-8.954,20-20V140.501C286,131.911,280.514,124.279,272.37,121.543z"/>
<path d="M504.5,0H7.5C3.358,0,0,3.358,0,7.5v497c0,4.142,3.358,7.5,7.5,7.5h497c4.142,0,7.5-3.358,7.5-7.5V7.5
	C512,3.358,508.642,0,504.5,0z M497,497H15V15h482V497z"/>
<path d="M37.5,482h437c4.142,0,7.5-3.358,7.5-7.5v-437c0-4.142-3.358-7.5-7.5-7.5h-437c-4.142,0-7.5,3.358-7.5,7.5v45
	c0,4.142,3.358,7.5,7.5,7.5s7.5-3.358,7.5-7.5V45h422v422H45V112.5c0-4.142-3.358-7.5-7.5-7.5s-7.5,3.358-7.5,7.5v362
	C30,478.642,33.358,482,37.5,482z"/>
<path d="M266,399c15.164,0,27.5-12.336,27.5-27.5V140.501c0-11.825-7.531-22.301-18.742-26.068
	c-2.832-0.951-5.777-1.433-8.755-1.433c-8.56,0-16.755,4.073-21.922,10.896l-50,66c-9.156,12.087-6.772,29.37,5.314,38.526
	c4.82,3.651,10.556,5.581,16.588,5.581c8.698,0,16.693-3.972,21.938-10.895l0.579-0.764V371.5C238.5,386.664,250.836,399,266,399z
	 M225.965,214.049c-2.384,3.147-6.022,4.953-9.98,4.953c-2.736,0-5.34-0.877-7.532-2.537c-5.494-4.162-6.578-12.018-2.416-17.512
	l50-66c2.349-3.101,6.075-4.953,9.966-4.953c1.351,0,2.69,0.22,3.979,0.652c5.095,1.712,8.519,6.474,8.519,11.849V371.5
	c0,6.893-5.607,12.5-12.5,12.5s-12.5-5.607-12.5-12.5V200.022c0-3.222-2.058-6.083-5.111-7.109c-0.785-0.264-1.59-0.391-2.388-0.391
	c-2.303,0-4.534,1.064-5.979,2.972L225.965,214.049z"/>
<g>
</g>
<g>
</g>
<g>
</g>
<g>
</g>
<g>
</g>
<g>
</g>
<g>
</g>
<g>
</g>
<g>
</g>
<g>
</g>
<g>
</g>
<g>
</g>
<g>
</g>
<g>
</g>
<g>
</g>
</svg>
