<?xml version="1.0" encoding="iso-8859-1"?>
<!-- Generator: Adobe Illustrator 19.0.0, SVG Export Plug-In . SVG Version: 6.00 Build 0)  -->
<svg version="1.1" id="Capa_1" xmlns="http://www.w3.org/2000/svg" xmlns:xlink="http://www.w3.org/1999/xlink" x="0px" y="0px"
	 viewBox="0 0 512 512" style="enable-background:new 0 0 512 512;" xml:space="preserve">
<polygon style="fill:#54BBFF;" points="474.5,7.5 256,256 474.5,504.5 504.5,504.5 504.5,7.5 "/>
<rect x="7.5" y="7.5" style="fill:#8DD2FF;" width="467" height="497"/>
<polygon style="fill:#C6E8FF;" points="444.5,37.5 256,256 444.5,474.5 474.5,474.5 474.5,37.5 "/>
<rect x="37.5" y="37.5" style="fill:#DEF1FF;" width="407" height="437"/>
<path style="fill:#54BBFF;" d="M305.5,391.5h-99c-7.177,0-13.804-3.846-17.365-10.077s-3.51-13.893,0.134-20.076l92.162-156.403
	c2.663-4.517,4.069-9.683,4.069-14.943c0-16.266-13.234-29.5-29.5-29.5s-29.5,13.234-29.5,29.5c0,11.046-8.954,20-20,20
	s-20-8.954-20-20c0-38.322,31.178-69.5,69.5-69.5s69.5,31.178,69.5,69.5c0,12.4-3.323,24.59-9.609,35.253L241.499,351.5H305.5
	c11.046,0,20,8.954,20,20S316.546,391.5,305.5,391.5z"/>
<path d="M504.5,0H7.5C3.358,0,0,3.358,0,7.5v497c0,4.142,3.358,7.5,7.5,7.5h497c4.142,0,7.5-3.358,7.5-7.5V7.5
	C512,3.358,508.642,0,504.5,0z M497,497H15V15h482V497z"/>
<path d="M37.5,482h437c4.142,0,7.5-3.358,7.5-7.5v-437c0-4.142-3.358-7.5-7.5-7.5h-437c-4.142,0-7.5,3.358-7.5,7.5v45
	c0,4.142,3.358,7.5,7.5,7.5s7.5-3.358,7.5-7.5V45h422v422H45V112.5c0-4.142-3.358-7.5-7.5-7.5s-7.5,3.358-7.5,7.5v362
	C30,478.642,33.358,482,37.5,482z"/>
<path d="M333,190c0-42.458-34.542-77-77-77s-77,34.542-77,77c0,15.164,12.336,27.5,27.5,27.5S234,205.164,234,190
	c0-12.131,9.869-22,22-22c12.131,0,22,9.869,22,22c0,3.922-1.048,7.772-3.03,11.136l-92.162,156.403
	c-4.998,8.481-5.068,19.059-0.184,27.605C187.507,393.691,196.656,399,206.5,399h99c15.164,0,27.5-12.336,27.5-27.5
	S320.664,344,305.5,344h-50.876l67.729-114.938C329.318,217.246,333,203.738,333,190z M309.43,221.446l-74.392,126.247
	c-1.367,2.319-1.386,5.192-0.05,7.529s3.82,3.779,6.512,3.779h64c6.893,0,12.5,5.607,12.5,12.5s-5.607,12.5-12.5,12.5h-99
	c-4.474,0-8.633-2.414-10.853-6.298c-2.22-3.885-2.188-8.692,0.083-12.547l92.162-156.402C291.234,203.083,293,196.599,293,190
	c0-20.402-16.598-37-37-37s-37,16.598-37,37c0,6.893-5.607,12.5-12.5,12.5S194,196.893,194,190c0-34.187,27.813-62,62-62
	s62,27.813,62,62C318,201.061,315.037,211.935,309.43,221.446z"/>
<g>
</g>
<g>
</g>
<g>
</g>
<g>
</g>
<g>
</g>
<g>
</g>
<g>
</g>
<g>
</g>
<g>
</g>
<g>
</g>
<g>
</g>
<g>
</g>
<g>
</g>
<g>
</g>
<g>
</g>
</svg>
